# xmcd
#
# Track frame offsets:
#  150
#  15934
#  30053
#  46478
#  60361
#
# Disc length: 978 seconds
#
# Revision: 0
# Processed by: cddbd v1.5.2PL0 Copyright (c) Steve Scherf et al.
# Submitted via: AltoMP3_Maker 3.0
#
DISCID=2703d005
DTITLE=Ian Tyson - from the Stone House
DYEAR=1900
DGENRE=
TTITLE0=Charles Goodnight's Grave
TTITLE1=Rio Colorado
TTITLE2=Under African Skies
TTITLE3=Song in a Dream
TTITLE4=The Yellow Dress (instrumental)
EXTD=
EXTT0=
EXTT1=
EXTT2=
EXTT3=
EXTT4=
PLAYORDER=
